<svg width="101" height="37" viewBox="0 0 101 37" fill="none" xmlns="http://www.w3.org/2000/svg">
<g clip-path="url(#clip0_1_144)">
<path d="M10.2956 15.8169C9.15322 17.0974 7.73564 17.7356 6.04075 17.7356C4.34587 17.7356 2.9138 17.1558 1.74869 15.9984C0.581518 14.843 0 13.2955 0 11.3601C0 9.42466 0.598074 7.83754 1.79629 6.59872C2.99244 5.35989 4.36449 4.74048 5.90624 4.74048C7.44799 4.74048 8.72691 5.38075 9.73888 6.6592V4.93444H13.3563V16.33C13.3563 17.4958 13.1556 18.5323 12.7541 19.4395C12.3526 20.3468 11.8145 21.06 11.1378 21.5772C9.80303 22.6471 8.22817 23.181 6.41119 23.181C5.44682 23.181 4.46176 23.0225 3.45807 22.7076C2.45231 22.3927 1.57279 21.9422 0.817437 21.3603L2.21639 18.6137C3.40633 19.5209 4.66456 19.9755 5.98902 19.9755C7.31347 19.9755 8.36476 19.6439 9.1346 18.9786C9.90651 18.3133 10.2914 17.2622 10.2914 15.819L10.2956 15.8169ZM9.78855 11.212C9.78855 10.1671 9.49882 9.34541 8.92144 8.74685C8.34199 8.14829 7.62803 7.84797 6.77541 7.84797C5.9228 7.84797 5.18814 8.14829 4.56937 8.74685C3.9506 9.34541 3.64018 10.165 3.64018 11.2016C3.64018 12.2381 3.94232 13.0765 4.54453 13.7167C5.14675 14.357 5.88347 14.6761 6.75058 14.6761C7.61768 14.6761 8.34199 14.3612 8.92144 13.7293C9.50089 13.0973 9.78855 12.2589 9.78855 11.2141V11.212Z" fill="#010101"/>
<path d="M20.3966 18.0297H16.7792V0H20.3966V18.0297Z" fill="#010101"/>
<path d="M46.9416 4.7384C48.5164 4.7384 49.8905 5.35781 51.0639 6.59664C52.2373 7.83547 52.823 9.42675 52.823 11.3705C52.823 13.3142 52.2208 14.9431 51.0143 16.2549C49.8078 17.5667 48.4378 18.2237 46.9043 18.2237C45.3708 18.2237 44.0961 17.5834 43.082 16.3049V18.0297H39.4646V0H43.082V6.4152C44.0774 5.29733 45.3646 4.7384 46.9395 4.7384H46.9416ZM43.0365 11.5061C43.0365 12.5676 43.3304 13.4352 43.916 14.1068C44.5017 14.7783 45.2136 15.1141 46.0496 15.1141C46.8857 15.1141 47.6162 14.7783 48.2432 14.1068C48.8703 13.4352 49.1828 12.5718 49.1828 11.5186C49.1828 10.4654 48.8765 9.58317 48.266 8.86991C47.6555 8.15664 46.9229 7.80001 46.0724 7.80001C45.2218 7.80001 44.5017 8.15247 43.9139 8.85739C43.3262 9.56231 43.0344 10.4445 43.0344 11.5061H43.0365Z" fill="#010101"/>
<path d="M66.5435 18.0297H63.1434V16.4509C62.2101 17.6334 61.0574 18.2257 59.6832 18.2257C58.3091 18.2257 57.1564 17.8253 56.2231 17.0224C55.2898 16.2194 54.8242 15.1516 54.8242 13.8148C54.8242 12.4779 55.3063 11.4789 56.2707 10.8137C57.2351 10.1504 58.5533 9.81675 60.2254 9.81675H62.9261V9.74376C62.9261 8.3506 62.1956 7.65402 60.7325 7.65402C60.1054 7.65402 59.4432 7.77916 58.7437 8.03151C58.0442 8.28178 57.4544 8.59461 56.9723 8.96584L55.356 6.60915C57.0592 5.36199 59.0045 4.7384 61.1898 4.7384C62.7647 4.7384 64.0498 5.13675 65.0473 5.92926C66.0427 6.72386 66.5414 7.97729 66.5414 9.69579V18.0297H66.5435ZM62.9033 13.0494V12.4175H60.6373C59.1907 12.4175 58.4664 12.8721 58.4664 13.7772C58.4664 14.2465 58.6382 14.6073 58.9838 14.8596C59.3294 15.1099 59.824 15.2371 60.4676 15.2371C61.1112 15.2371 61.6761 15.039 62.1666 14.6407C62.6571 14.2444 62.9013 13.7147 62.9013 13.0494H62.9033Z" fill="#010101"/>
<path d="M73.4638 18.0297H69.8464V0H73.4638V18.0297Z" fill="#010101"/>
<path d="M24.0678 35.0312L20.378 30.0989L16.6406 35.0312H14.0599L19.0991 28.4471L14.3 22.155H16.8806L20.4008 26.7953L23.8961 22.155H26.427L21.6052 28.4471L26.6919 35.0312H24.0637H24.0678Z" fill="#010101"/>
<path d="M36.4121 34.2783C36.0748 34.5703 35.6568 34.7935 35.158 34.9457C34.6593 35.098 34.1461 35.1772 33.6142 35.1772C32.3291 35.1772 31.3316 34.8289 30.6239 34.1323C29.9161 33.4358 29.5622 32.4409 29.5622 31.1437V24.0737H27.3914V22.1549H29.5622V19.3373H31.8759V22.1549H35.5409V24.0737H31.8759V31.0478C31.8759 31.7444 32.0476 32.2783 32.3932 32.6516C32.7388 33.0249 33.2334 33.2105 33.877 33.2105C34.5848 33.2105 35.187 33.0082 35.6858 32.6036L36.408 34.2804L36.4121 34.2783Z" fill="#010101"/>
<path d="M42.7613 22.6138C43.5476 22.2238 44.5058 22.0298 45.6295 22.0298V24.2906C45.5012 24.2739 45.3232 24.2655 45.0997 24.2655C43.8456 24.2655 42.8606 24.643 42.1466 25.3959C41.4306 26.1488 41.0746 27.2229 41.0746 28.616V35.0312H38.761V22.1529H40.9794V24.3156C41.3809 23.571 41.9769 23.0038 42.7633 22.6138H42.7613Z" fill="#010101"/>
<path d="M59.4059 29.3689H49.0379C49.1828 30.5035 49.6774 31.4148 50.5217 32.1031C51.366 32.7913 52.4153 33.1354 53.6694 33.1354C55.1966 33.1354 56.4259 32.6161 57.3592 31.5796L58.6361 33.0854C58.0566 33.7653 57.3385 34.2846 56.4776 34.6412C55.6167 34.9978 54.6565 35.1751 53.5969 35.1751C52.2476 35.1751 51.0494 34.8957 50.0043 34.3367C48.9593 33.7778 48.1522 32.9957 47.581 31.9925C47.0098 30.9894 46.7242 29.8548 46.7242 28.591C46.7242 27.3271 47.0016 26.2176 47.5562 25.2145C48.1108 24.2092 48.8744 23.4292 49.8471 22.8703C50.8197 22.3114 51.9165 22.0319 53.1375 22.0319C54.3585 22.0319 55.4491 22.3114 56.4052 22.8703C57.3613 23.4292 58.1083 24.2113 58.6485 25.2145C59.1865 26.2197 59.4556 27.3689 59.4556 28.664C59.4556 28.8433 59.439 29.0769 59.408 29.3689H59.4059ZM50.352 25.0205C49.6049 25.7004 49.1662 26.5909 49.0379 27.6942H57.235C57.1067 26.6097 56.668 25.7213 55.9209 25.033C55.1738 24.3448 54.2447 24.0007 53.1354 24.0007C52.0262 24.0007 51.0991 24.3406 50.3499 25.0205H50.352Z" fill="#010101"/>
<path d="M81.1166 23.4397C82.0562 24.3803 82.528 25.7713 82.528 27.6191V35.0292H80.2143V27.8861C80.2143 26.6389 79.9288 25.6983 79.3576 25.0685C78.7864 24.4366 77.971 24.1216 76.9094 24.1216C75.736 24.1216 74.8027 24.4908 74.1136 25.227C73.4224 25.9653 73.0768 27.0206 73.0768 28.3991V35.0333H70.7631V27.8903C70.7631 26.6431 70.4775 25.7025 69.9064 25.0727C69.3352 24.4407 68.5198 24.1258 67.4582 24.1258C66.2848 24.1258 65.3515 24.495 64.6623 25.2312C63.9711 25.9695 63.6256 27.0248 63.6256 28.4033V35.0375H61.3119V22.1591H63.5304V24.0778C63.996 23.4146 64.6065 22.9078 65.3639 22.5596C66.1192 22.2113 66.9781 22.0361 67.9445 22.0361C68.911 22.0361 69.8257 22.2384 70.5976 22.643C71.3695 23.0476 71.9634 23.6399 72.3814 24.4157C72.8636 23.6712 73.5341 23.0872 74.395 22.6659C75.2538 22.2446 76.2224 22.034 77.3005 22.034C78.9085 22.034 80.1812 22.5032 81.1228 23.4438L81.1166 23.4397Z" fill="#010101"/>
<path d="M97.4674 29.3689H87.0994C87.2443 30.5035 87.7389 31.4148 88.5832 32.1031C89.4276 32.7913 90.4768 33.1354 91.7309 33.1354C93.2581 33.1354 94.4874 32.6161 95.4207 31.5796L96.6976 33.0854C96.1181 33.7653 95.4 34.2846 94.5391 34.6412C93.6782 34.9978 92.718 35.1751 91.6584 35.1751C90.3092 35.1751 89.1109 34.8957 88.0659 34.3367C87.0208 33.7778 86.2137 32.9957 85.6425 31.9925C85.0713 30.9894 84.7858 29.8548 84.7858 28.591C84.7858 27.3271 85.0631 26.2176 85.6177 25.2145C86.1723 24.2092 86.9359 23.4292 87.9086 22.8703C88.8812 22.3114 89.978 22.0319 91.199 22.0319C92.42 22.0319 93.5106 22.3114 94.4667 22.8703C95.4228 23.4292 96.1699 24.2113 96.71 25.2145C97.2481 26.2197 97.5171 27.3689 97.5171 28.664C97.5171 28.8433 97.5005 29.0769 97.4695 29.3689H97.4674ZM88.4135 25.0205C87.6665 25.7004 87.2277 26.5909 87.0994 27.6942H95.2965C95.1682 26.6097 94.7295 25.7213 93.9824 25.033C93.2354 24.3448 92.3062 24.0007 91.1969 24.0007C90.0877 24.0007 89.1606 24.3406 88.4115 25.0205H88.4135Z" fill="#010101"/>
<path d="M34.5641 6.40061C33.3721 5.45793 31.9421 4.98242 30.2679 4.98242C28.2978 4.98242 26.6629 5.6352 25.3612 6.93868C24.0595 8.24216 23.4077 9.84179 23.4077 11.7376C23.4077 12.1609 23.4449 12.5655 23.5091 12.9597L34.562 6.40061H34.5641Z" fill="#010101"/>
<path d="M35.6154 7.42044L29.2559 18.3989C29.585 18.4406 29.9202 18.4677 30.27 18.4677C32.238 18.4677 33.875 17.8191 35.1766 16.5239C36.4783 15.2288 37.1302 13.6333 37.1302 11.7376C37.1302 10.0691 36.6253 8.63215 35.6174 7.42044H35.6154Z" fill="#010101"/>
<path d="M33.4962 8.52579L23.8588 14.2444C24.1837 15.0849 24.6824 15.8461 25.3612 16.5239C26.1103 17.2706 26.9733 17.794 27.9439 18.111L33.4962 8.52787V8.52579Z" fill="#F8CA10"/>
<path d="M98.7401 35.3253V36.2346H98.4877V34.0489H99.0816C99.3486 34.0489 99.5452 34.1011 99.6714 34.2033C99.7976 34.3054 99.8618 34.4598 99.8618 34.6662C99.8618 34.9561 99.7169 35.1501 99.4251 35.2523L100.015 36.2346H99.7169L99.1913 35.3253H98.7381H98.7401ZM98.7401 35.1063H99.0857C99.2637 35.1063 99.3941 35.0708 99.4769 34.9999C99.5597 34.929 99.601 34.8227 99.601 34.6788C99.601 34.5349 99.5596 34.4306 99.4748 34.3659C99.39 34.3013 99.2554 34.27 99.0671 34.27H98.7401V35.1063Z" fill="#010101"/>
<path d="M99.1913 36.8665C100.117 36.8665 100.868 36.1102 100.868 35.1772C100.868 34.2442 100.117 33.4879 99.1913 33.4879C98.2655 33.4879 97.515 34.2442 97.515 35.1772C97.515 36.1102 98.2655 36.8665 99.1913 36.8665Z" stroke="#010101" stroke-width="1.28" stroke-miterlimit="10"/>
</g>
<defs>
<clipPath id="clip0_1_144">
<rect width="101" height="37" fill="white"/>
</clipPath>
</defs>
</svg>
