<svg width="40" height="40" viewBox="0 0 512 512" fill="none" xmlns="http://www.w3.org/2000/svg">
<g clip-path="url(#clip0_13_282)">
<rect width="512" height="512" fill="white"/>
<rect width="512" height="512" fill="black"/>
<g clip-path="url(#clip1_13_282)">
<path d="M376.297 108.415C342.929 82.1744 302.866 69 256 69C200.927 69 155.141 87.1417 118.641 123.317C82.2497 159.601 64 203.983 64 256.573C64 268.343 65.0799 279.574 66.9156 290.48L376.297 108.415Z" fill="white"/>
<path d="M405.669 136.708L227.6 441.661C236.778 442.849 246.173 443.605 256 443.605C311.073 443.605 356.859 425.571 393.359 389.612C429.858 353.652 448 309.27 448 256.681C448 210.246 433.854 170.399 405.669 136.708Z" fill="white"/>
<path d="M346.385 167.484L76.6344 326.332C85.7053 349.657 99.6355 370.822 118.749 389.612C139.699 410.345 163.887 424.923 190.992 433.67L346.385 167.484Z" fill="#F9C900"/>
</g>
</g>
<defs>
<clipPath id="clip0_13_282">
<rect width="512" height="512" fill="white"/>
</clipPath>
<clipPath id="clip1_13_282">
<rect width="384" height="374.605" fill="white" transform="translate(64 69)"/>
</clipPath>
</defs>
</svg>
